<?xml version="1.0" encoding="utf-8"?>
<!-- Generator: Adobe Illustrator 16.0.0, SVG Export Plug-In . SVG Version: 6.00 Build 0)  -->
<!DOCTYPE svg PUBLIC "-//W3C//DTD SVG 1.1//EN" "http://www.w3.org/Graphics/SVG/1.1/DTD/svg11.dtd">
<svg version="1.1" id="Layer_1" xmlns="http://www.w3.org/2000/svg" xmlns:xlink="http://www.w3.org/1999/xlink" x="0px" y="0px"
	 width="150px" height="39.75px" viewBox="-2 0 150 39.75" enable-background="new -2 0 150 39.75" xml:space="preserve">
<path d="M128.74,0.806c-9.434-1.451-18.993-0.439-28.442-0.533c-31.129-0.301-62.14-0.849-93.062,4.36
	c-14.73,2.487-10.7,37.03,4.028,34.552c14.355-2.366,28.802-3.752,43.277-4.152c15.74-0.338,31.481-0.251,47.229,0.636
	c8.209,0.463,16.947-1.062,25.223,0.559c10.254,1.975,13.509,0.689,19.63-5.31c5.752-18.433-7.778-28.326-17.437-30.038
	C129.037,0.854,128.881,0.829,128.74,0.806z M53.044,33.838c-0.265,0.007-0.53,0.014-0.795,0.018
	C52.515,33.844,52.78,33.844,53.044,33.838z"/>
</svg>
